<svg aria-hidden="true" style="position: absolute; width: 0; height: 0; overflow: hidden;" version="1.1" xmlns="http://www.w3.org/2000/svg" xmlns:xlink="http://www.w3.org/1999/xlink">
<defs>
<symbol id="copper" viewBox="0 0 32 32">
<title>copper</title>
<path d="M23.729 11.517c0-4.421-3.467-8.018-7.729-8.018s-7.729 3.597-7.729 8.018c0 4.142 3.043 7.56 6.932 7.975v3.271h-2.455v1.575h2.455v2.756h1.457v-2.756h2.455v-1.575h-2.455v-3.257c3.953-0.345 7.069-3.796 7.069-7.989zM9.422 11.517c0-3.77 2.951-6.837 6.578-6.837s6.579 3.067 6.579 6.837-2.947 6.837-6.57 6.837h-0.008c-3.627-0-6.578-3.067-6.578-6.837z"></path>
</symbol>
<symbol id="gold" viewBox="0 0 32 32">
<title>gold</title>
<path d="M16.015 2.443c-7.467 0-13.542 6.087-13.542 13.569s6.075 13.569 13.542 13.569 13.542-6.087 13.542-13.569c0-7.482-6.075-13.569-13.542-13.569zM16.015 28.62c-6.938 0-12.582-5.656-12.582-12.608s5.644-12.608 12.582-12.608c6.938 0 12.582 5.656 12.582 12.608s-5.644 12.608-12.582 12.608z"></path>
<path d="M17.391 15.987c0 0.724-0.623 1.311-1.392 1.311s-1.392-0.587-1.392-1.312c0-0.724 0.623-1.312 1.392-1.312s1.392 0.587 1.392 1.312z"></path>
</symbol>
<symbol id="mercury" viewBox="0 0 32 32">
<title>mercury</title>
<path d="M23.761 13.77c0-3.722-2.903-6.81-6.665-7.319 1.843-0.251 3.448-1.11 4.335-2.362l0.16-0.225-0.265 0.077c-1.531 0.447-3.311 0.69-5.148 0.701-2.020 0.013-3.95-0.25-5.579-0.759l-0.261-0.082 0.153 0.227c0.872 1.295 2.495 2.177 4.38 2.426-3.746 0.522-6.632 3.603-6.632 7.314 0 3.85 3.105 7.021 7.055 7.362v3.175h-2.498v1.326h2.498v2.565h1.272v-2.565h2.498v-1.326h-2.498v-3.163c4.015-0.274 7.195-3.476 7.195-7.374zM9.199 13.77c0-3.547 3.051-6.433 6.801-6.433s6.801 2.886 6.801 6.433-3.047 6.433-6.793 6.433h-0.008c-3.75 0-6.801-2.886-6.801-6.433z"></path>
</symbol>
<symbol id="silver" viewBox="0 0 32 32">
<title>silver</title>
<path d="M13.455 29.58c-0.936 0-1.874-0.097-2.786-0.288l-2.241-0.47 2.241-0.47c2.784-0.584 5.319-2.125 7.136-4.341 1.842-2.246 2.857-5.087 2.857-8s-1.015-5.754-2.857-8c-1.817-2.216-4.352-3.757-7.136-4.341l-2.241-0.47 2.241-0.47c0.912-0.191 1.85-0.288 2.787-0.288 7.467 0 13.542 6.087 13.542 13.569s-6.075 13.569-13.542 13.569zM13.098 28.615c0.119 0.003 0.238 0.005 0.357 0.005 6.938 0 12.582-5.656 12.582-12.608s-5.644-12.608-12.582-12.608c-0.119 0-0.238 0.002-0.357 0.005 2.107 0.845 3.992 2.219 5.449 3.995 1.983 2.417 3.074 5.474 3.074 8.608s-1.092 6.191-3.074 8.608c-1.457 1.776-3.342 3.15-5.449 3.995z"></path>
</symbol>
<symbol id="sulfur" viewBox="0 0 32 32">
<title>sulfur</title>
<path d="M17.024 21.376h9.499l-10.311-17.589-10.311 17.589h9.331v2.88h-3.072v1.792h3.072v3.008h1.792v-3.008h2.816v-1.792h-2.816v-2.88zM16.064 20.416h-8.487l8.635-14.731 8.635 14.731h-8.784z"></path>
</symbol>
</defs>
</svg>
